<?xml version="1.0" encoding="UTF-8" standalone="no"?><!DOCTYPE svg PUBLIC "-//W3C//DTD SVG 1.1//EN" "http://www.w3.org/Graphics/SVG/1.1/DTD/svg11.dtd"><svg width="100%" height="100%" viewBox="0 0 5800 6270" version="1.1" xmlns="http://www.w3.org/2000/svg" xmlns:xlink="http://www.w3.org/1999/xlink" xml:space="preserve" xmlns:serif="http://www.serif.com/" style="fill-rule:evenodd;clip-rule:evenodd;stroke-linejoin:round;stroke-miterlimit:2;"><path d="M5799.39,1460.78c-33.222,-53.368 -67.981,-105.2 -104.276,-155.496c-19.286,-27.158 -39.36,-53.135 -58.252,-78.719c-594.915,-772.852 -1516.72,-1226.56 -2492.03,-1226.56c-1725.2,0 -3144.84,1419.63 -3144.84,3144.84c0,447.427 95.485,889.06 279.25,1295.53c423.848,-279.748 1126.28,-555.025 1179.08,-466.893c-147.073,-256.463 -224.327,-547.076 -224.019,-842.717c0,-938.049 760.493,-1698.54 1698.54,-1698.54l19.39,0.108c487.103,5.459 924.703,216.155 1231,549.508c52.996,48.805 102.897,101.502 149.239,157.871c20.861,25.19 39.36,51.561 60.22,78.719c8.942,12.294 17.883,24.589 26.157,37.217l1380.53,-794.865Z" style="fill:#659ad2;"/><path d="M1458.33,3973.48c292.779,511.125 843.184,855.86 1474.56,855.86c440.369,-0 841.453,-167.75 1143.13,-442.746c138.197,-105.871 259.597,-235.316 357.617,-384.782l1349.64,815.926c-577.28,903.571 -1578.24,1451.87 -2650.47,1451.87c-1131.19,0 -2178.51,-610.248 -2736.29,-1594.36c-12.202,-24.797 -25.977,-49.593 -39.36,-74.783c-27.518,-52.7 -53.494,-106.09 -77.912,-160.1c423.848,-279.748 1126.28,-555.025 1179.08,-466.893Z" style="fill:#004482;"/><path d="M1458.33,3973.48c292.779,511.125 843.184,855.86 1474.56,855.86c440.369,-0 841.453,-167.75 1143.13,-442.746c-270.66,207.35 -605.749,324.275 -955.814,324.086c-572.139,0.801 -1101.19,-311.04 -1377.59,-811.99l-284.289,74.79Z" style="fill:#659ad2;"/><path d="M1742.62,3898.69c-13.907,-24.665 -27.027,-49.855 -39.36,-75.57c-103.408,-213.567 -157.133,-447.801 -157.133,-685.085c0,-862.387 709.638,-1572.03 1572.03,-1572.03c396.943,0 776.815,150.345 1065.09,415.827c-306.299,-333.353 -743.899,-544.049 -1231,-549.508l-19.39,-0.108c-938.048,0 -1698.54,760.493 -1698.54,1698.54c-0.308,295.641 76.946,586.254 224.019,842.717l284.289,-74.79Z" style="fill:#004482;"/></svg>