<?xml version="1.0" encoding="UTF-8" standalone="no"?><!DOCTYPE svg PUBLIC "-//W3C//DTD SVG 1.1//EN" "http://www.w3.org/Graphics/SVG/1.1/DTD/svg11.dtd"><svg width="100%" height="100%" viewBox="0 0 7444 6140" version="1.1" xmlns="http://www.w3.org/2000/svg" xmlns:xlink="http://www.w3.org/1999/xlink" xml:space="preserve" xmlns:serif="http://www.serif.com/" style="fill-rule:evenodd;clip-rule:evenodd;stroke-linejoin:round;stroke-miterlimit:2;"><path d="M7443.27,3241.94l-351.6,-0l0,351.672l-351.672,-0l0,-351.672l-351.563,-0l-0,-351.564l351.563,0l0,-351.6l351.672,0l0,351.6l351.6,0l0,351.564Z" style="fill:#1b598e;"/><path d="M6160.3,3241.94l-351.564,-0l0,351.672l-351.599,-0l-0,-351.672l-351.6,-0l-0,-351.564l351.6,0l-0,-351.6l351.599,0l0,351.6l351.564,0l-0,351.564Z" style="fill:#1b598e;"/><path d="M1742.63,3827.82c-132.343,-230.778 -201.86,-492.284 -201.586,-758.316c0,-844.136 684.358,-1528.46 1528.49,-1528.46c564.505,0 1057.19,306.357 1321.95,761.607l1335.99,-769.31c-531.016,-916.647 -1522.42,-1533.34 -2657.94,-1533.34c-1695.29,0 -3069.53,1374.28 -3069.53,3069.5c-0,556.151 147.953,1077.69 406.535,1527.55c-25.828,-46.224 88.126,-138.388 265.251,-247.128c386.055,-237.007 1051.83,-540.064 1070.84,-522.109Z" style="fill:#5c8dbc;"/><path d="M5735.43,4591.84l-1334,-772.89c-262.126,464.87 -760.232,779.038 -1331.9,779.038c-568.158,0 -1063.44,-310.226 -1326.91,-770.177c-19.014,-17.955 -684.787,285.102 -1070.84,522.109c-177.125,108.74 -291.079,200.904 -265.251,247.128c325.337,565.997 825.93,1018.44 1427.7,1283.29c372.109,158.311 787.804,248.218 1235.3,258.695c1141.2,0 2136.98,-622.984 2665.89,-1547.19Z" style="fill:#1a4674;"/></svg>