<?xml version="1.0" encoding="UTF-8" standalone="no"?><!DOCTYPE svg PUBLIC "-//W3C//DTD SVG 1.1//EN" "http://www.w3.org/Graphics/SVG/1.1/DTD/svg11.dtd"><svg width="100%" height="100%" viewBox="0 0 7258 6823" version="1.1" xmlns="http://www.w3.org/2000/svg" xmlns:xlink="http://www.w3.org/1999/xlink" xml:space="preserve" xmlns:serif="http://www.serif.com/" style="fill-rule:evenodd;clip-rule:evenodd;stroke-linejoin:round;stroke-miterlimit:2;"><path d="M6047.89,2429.74l0,483.799l483.8,0l0,-483.799l241.9,-0l-0,483.799l483.8,0l-0,241.9l-483.8,0l-0,483.764l483.8,-0l-0,241.9l-483.8,-0l-0,483.799l-241.9,0l0,-483.799l-483.8,-0l0,483.799l-241.899,0l-0,-483.799l-483.764,-0l-0,-241.9l483.764,-0l-0,-483.764l-483.764,0l-0,-241.9l483.764,0l-0,-483.799l241.899,-0Zm483.8,725.663l-483.8,0l0,483.8l483.8,-0l0,-483.8Z" style="fill:#390091;fill-rule:nonzero;"/><path d="M450.157,5105.81c-286.358,-499.282 -450.157,-1077.83 -450.157,-1694.72c0,-1883.85 1527.16,-3411.09 3411.09,-3411.09l0.036,0.036c1261.89,-0 2363.6,685.305 2953.71,1703.96l-5.745,-9.802l-1484.72,854.854c-292.492,-495.254 -828.714,-829.505 -1443.89,-836.399l-19.389,-0.107c-938.049,-0 -1698.54,760.492 -1698.54,1698.54c-0.308,295.641 76.945,586.255 224.018,842.718c-79.852,-133.269 -1645.1,564.421 -1486.41,852.006Z" style="fill:#a179dc;"/><path d="M3411.12,5109.66c630.193,0 1179.93,-343.538 1473.03,-853.301l1482.44,858.795c-583.655,1010.04 -1670.28,1693.23 -2917.48,1706.84l-37.989,0.216c-1265.87,-0 -2354.04,-699.305 -2959.35,-1713.59c-0.547,-0.935 -1.085,-1.872 -1.614,-2.812c-158.694,-287.585 1406.55,-985.275 1486.41,-852.006c292.779,511.124 843.185,855.859 1474.56,855.859Z" style="fill:#280068;"/></svg>